<?xml version="1.0" standalone="no"?>
<!DOCTYPE svg PUBLIC "-//W3C//DTD SVG 20010904//EN"
 "http://www.w3.org/TR/2001/REC-SVG-20010904/DTD/svg10.dtd">
<svg version="1.0" xmlns="http://www.w3.org/2000/svg"
 width="15.000000pt" height="15.000000pt" viewBox="0 0 1600.000000 1600.000000"
 preserveAspectRatio="xMidYMid meet">
<metadata>
Created by potrace 1.14, written by Peter Selinger 2001-2017
</metadata>
<g transform="translate(0.000000,1600.000000) scale(0.100000,-0.100000)"
fill="#66CC00" stroke="none">
<path d="M7630 15324 c-19 -2 -105 -8 -190 -14 -85 -6 -245 -22 -355 -36
-1898 -235 -3630 -1211 -4831 -2720 -832 -1046 -1364 -2313 -1528 -3639 -43
-348 -51 -489 -51 -915 0 -426 8 -567 51 -915 235 -1897 1211 -3631 2720
-4831 1047 -832 2313 -1364 3639 -1528 348 -43 489 -51 915 -51 426 0 567 8
915 51 1898 235 3630 1211 4831 2720 832 1046 1364 2313 1528 3639 43 348 51
489 51 915 0 426 -8 567 -51 915 -235 1897 -1211 3631 -2720 4831 -1035 823
-2300 1358 -3604 1524 -327 42 -477 51 -885 55 -220 2 -416 1 -435 -1z m890
-1348 c314 -29 599 -75 879 -142 1461 -349 2743 -1242 3585 -2497 521 -776
851 -1657 965 -2572 36 -286 45 -445 45 -765 0 -320 -9 -479 -45 -765 -212
-1705 -1170 -3252 -2612 -4219 -776 -521 -1657 -851 -2572 -965 -286 -36 -445
-45 -765 -45 -320 0 -479 9 -765 45 -1705 212 -3252 1170 -4219 2612 -579 863
-905 1803 -998 2877 -16 187 -16 733 0 920 93 1074 419 2014 998 2877 621 925
1512 1682 2506 2127 726 325 1367 478 2223 530 120 7 624 -5 775 -18z"/>
<path d="M9463 8408 l-2133 -2133 -1098 1098 -1097 1097 -470 -470 -470 -470
1570 -1570 1570 -1570 2605 2605 2605 2605 -470 470 c-258 258 -472 470 -475
470 -3 0 -965 -960 -2137 -2132z"/>
</g>
</svg>
