<?xml version="1.0" standalone="no"?>
<!DOCTYPE svg PUBLIC "-//W3C//DTD SVG 20010904//EN"
 "http://www.w3.org/TR/2001/REC-SVG-20010904/DTD/svg10.dtd">
<svg version="1.0" xmlns="http://www.w3.org/2000/svg"
 width="20.000000pt" height="20.000000pt" viewBox="0 0 512.000000 512.000000"
 preserveAspectRatio="xMidYMid meet">
<metadata>
Created by potrace 1.14, written by Peter Selinger 2001-2017
</metadata>
<g transform="translate(0.000000,512.000000) scale(0.100000,-0.100000)"
fill="#1e676a" stroke="none">
<path d="M2376 4608 c-290 -25 -608 -128 -857 -277 -159 -95 -272 -183 -409
-321 -187 -186 -329 -390 -426 -609 -306 -697 -219 -1476 234 -2086 85 -116
291 -322 407 -407 120 -89 275 -181 394 -234 697 -306 1476 -219 2086 234 116
85 322 291 407 407 89 120 181 275 234 394 306 697 219 1476 -234 2086 -85
116 -291 322 -407 407 -418 310 -916 452 -1429 406z m334 -1563 l-490 -490
490 -490 490 -490 -177 -177 -178 -178 -667 667 -668 668 667 667 668 668 177
-177 178 -178 -490 -490z"/>
</g>
</svg>
