<?xml version="1.0" standalone="no"?>
<!DOCTYPE svg PUBLIC "-//W3C//DTD SVG 20010904//EN"
 "http://www.w3.org/TR/2001/REC-SVG-20010904/DTD/svg10.dtd">
<svg version="1.0" xmlns="http://www.w3.org/2000/svg"
 width="15.000000pt" height="15.000000pt" viewBox="0 0 626.000000 626.000000"
 preserveAspectRatio="xMidYMid meet">
<metadata>
Created by potrace 1.14, written by Peter Selinger 2001-2017
</metadata>
<g transform="translate(0.000000,626.000000) scale(0.100000,-0.100000)"
fill="#f89c62" stroke="none">
<path d="M2830 6245 c-369 -41 -697 -128 -1005 -269 -246 -113 -555 -314 -757
-492 -87 -77 -286 -281 -351 -361 -130 -159 -214 -285 -327 -485 -337 -603
-460 -1306 -349 -2003 87 -541 312 -1046 659 -1477 97 -120 339 -362 460 -459
186 -150 468 -326 657 -410 37 -17 82 -36 98 -44 56 -25 170 -67 265 -96 633
-197 1268 -197 1900 0 358 111 712 303 1022 552 132 106 351 325 457 457 248
309 440 664 552 1022 197 631 198 1262 1 1900 -143 461 -412 901 -772 1260
-523 523 -1162 825 -1919 905 -163 18 -432 18 -591 0z m525 -385 c466 -42 910
-196 1275 -442 200 -135 288 -207 445 -365 302 -305 520 -660 655 -1064 114
-341 162 -741 130 -1084 -62 -666 -332 -1246 -796 -1710 -309 -308 -666 -529
-1075 -665 -341 -114 -756 -163 -1090 -130 -673 68 -1238 332 -1702 797 -315
314 -524 652 -670 1083 -110 322 -159 743 -127 1080 63 664 332 1239 797 1703
358 359 778 599 1264 722 287 73 612 100 894 75z"/>
<path d="M1890 4883 c-14 -3 -54 -18 -90 -34 -53 -25 -89 -55 -217 -181 -184
-182 -205 -218 -211 -350 -8 -167 31 -485 88 -708 55 -218 113 -376 210 -575
232 -474 552 -847 985 -1147 44 -31 96 -65 115 -76 19 -11 69 -39 110 -62 350
-201 768 -329 1205 -370 190 -17 274 -14 354 16 67 25 80 35 223 180 162 163
197 213 219 314 16 75 7 161 -27 250 -24 63 -39 86 -104 151 -77 78 -131 113
-210 134 -25 7 -137 38 -250 70 -243 67 -304 75 -398 50 -105 -28 -139 -50
-254 -163 l-108 -105 -102 33 c-135 44 -350 153 -463 235 -169 121 -324 280
-437 444 -122 179 -265 513 -236 549 7 9 52 56 99 104 96 99 129 152 154 248
23 89 16 164 -34 345 -113 406 -111 403 -200 498 -92 99 -192 147 -316 152
-44 2 -91 1 -105 -2z"/>
</g>
</svg>
