<?xml version="1.0" standalone="no"?>
<!DOCTYPE svg PUBLIC "-//W3C//DTD SVG 20010904//EN"
 "http://www.w3.org/TR/2001/REC-SVG-20010904/DTD/svg10.dtd">
<svg version="1.0" xmlns="http://www.w3.org/2000/svg"
 width="15.000000pt" height="15.000000pt" viewBox="0 0 128.000000 128.000000"
 preserveAspectRatio="xMidYMid meet" id="deleteSVG">
<metadata>
Created by potrace 1.13, written by Peter Selinger 2001-2015
</metadata>
<style>
	#deleteSVG path{
		fill: #ceccc7;
		-webkit-transform: perspective(1px) translateZ(0);
		transform: perspective(1px) translateZ(0);
	}
	
	@-webkit-keyframes hvr-bob {
	  0% {
		-webkit-transform: translateY(-8px);
		transform: translateY(-8px);
	  }
	  50% {
		-webkit-transform: translateY(-4px);
		transform: translateY(-4px);
	  }
	  100% {
		-webkit-transform: translateY(-8px);
		transform: translateY(-8px);
	  }
	}
	@keyframes hvr-bob {
	  0% {
		-webkit-transform: translateY(-8px);
		transform: translateY(-8px);
	  }
	  50% {
		-webkit-transform: translateY(-4px);
		transform: translateY(-4px);
	  }
	  100% {
		-webkit-transform: translateY(-8px);
		transform: translateY(-8px);
	  }
	}
	@-webkit-keyframes hvr-bob-float {
	  100% {
		-webkit-transform: translateY(-8px);
		transform: translateY(-8px);
	  }
	}
	@keyframes hvr-bob-float {
	  100% {
		-webkit-transform: translateY(-8px);
		transform: translateY(-8px);
	  }
	}
	
	
	#deleteSVG:hover, #deleteSVG:focus, #deleteSVG:active{
		-webkit-animation-name: hvr-bob-float, hvr-bob;
		animation-name: hvr-bob-float, hvr-bob;
		-webkit-animation-duration: .3s, 1.5s;
		animation-duration: .3s, 1.5s;
		-webkit-animation-delay: 0s, .3s;
		animation-delay: 0s, .3s;
		-webkit-animation-timing-function: ease-out, ease-in-out;
		animation-timing-function: ease-out, ease-in-out;
		-webkit-animation-iteration-count: 1, infinite;
		animation-iteration-count: 1, infinite;
		-webkit-animation-fill-mode: forwards;
		animation-fill-mode: forwards;
		-webkit-animation-direction: normal, alternate;
		animation-direction: normal, alternate;
	}
	
	#deleteSVG:hover path{
		fill: #f89c62;
	}
</style>
<g transform="translate(0.000000,128.000000) scale(0.100000,-0.100000)"
fill="#000000" stroke="none">
<path d="M480 1095 c-22 -23 -30 -25 -117 -25 l-93 0 0 -55 0 -55 370 0 370 0
0 55 0 55 -93 0 c-87 0 -95 2 -117 25 -23 24 -27 25 -160 25 -133 0 -137 -1
-160 -25z"/>
<path d="M320 569 l0 -341 34 -34 35 -35 255 3 256 3 27 28 28 27 3 345 3 345
-321 0 -320 0 0 -341z"/>
</g>
</svg>
