<?xml version="1.0" standalone="no"?>
<!DOCTYPE svg PUBLIC "-//W3C//DTD SVG 20010904//EN"
 "http://www.w3.org/TR/2001/REC-SVG-20010904/DTD/svg10.dtd">
<svg version="1.0" xmlns="http://www.w3.org/2000/svg"
 width="15.000000pt" height="15.000000pt" viewBox="0 0 512.000000 512.000000"
 preserveAspectRatio="xMidYMid meet">
<metadata>
Created by potrace 1.14, written by Peter Selinger 2001-2017
</metadata>
<g transform="translate(0.000000,512.000000) scale(0.100000,-0.100000)"
fill="#ff6666" stroke="none">
<path d="M2350 5100 c-482 -49 -921 -216 -1295 -493 -227 -167 -529 -499 -672
-737 -461 -769 -480 -1746 -48 -2532 131 -237 252 -394 466 -604 161 -157 236
-218 391 -317 328 -209 668 -333 1068 -388 125 -18 508 -18 625 0 411 60 760
189 1080 399 161 105 245 175 404 333 194 195 302 336 443 584 130 227 240
566 283 867 20 143 20 563 0 701 -69 468 -266 916 -550 1257 -88 105 -345 354
-436 422 -348 260 -760 431 -1191 493 -125 19 -451 27 -568 15z m470 -511
c283 -26 633 -154 885 -324 129 -87 179 -128 293 -239 284 -276 468 -604 574
-1021 28 -113 30 -134 35 -370 3 -154 1 -289 -6 -350 -40 -360 -230 -777 -487
-1071 -302 -344 -650 -547 -1139 -666 -101 -25 -539 -37 -687 -19 -220 26
-489 117 -710 240 -209 116 -446 312 -590 488 -200 245 -349 554 -424 880 -24
105 -27 143 -32 353 -2 138 0 277 7 336 29 269 161 620 327 869 316 475 828
802 1392 889 107 17 406 20 562 5z"/>
<path d="M1532 3578 l-222 -223 417 -417 418 -418 -418 -418 -417 -417 225
-225 225 -225 418 418 417 417 417 -417 418 -418 225 225 225 225 -417 417
-418 418 418 418 417 417 -225 225 -225 225 -413 -413 c-226 -226 -417 -412
-422 -412 -6 0 -195 185 -420 410 -225 226 -412 410 -415 410 -3 0 -105 -100
-228 -222z"/>
</g>
</svg>
