<?xml version="1.0" encoding="utf-8"?>
<!-- Generator: Adobe Illustrator 18.1.1, SVG Export Plug-In . SVG Version: 6.00 Build 0)  -->
<svg version="1.1" baseProfile="tiny" id="Ebene_1" xmlns="http://www.w3.org/2000/svg" xmlns:xlink="http://www.w3.org/1999/xlink"
	 x="0px" y="0px" viewBox="0 0 160 160" xml:space="preserve" width="80pt" height="80pt">
<style type="text/css">
.border1{
	fill: #4b4b4b;
	transition: 0.5s;
}

.border2{
	fill: #4b4b4b;
	transition: 0.5s;
}

.living{
	fill: #1e676a;
	transition: 0.5s;
}

.space{
	fill: #f89c62;
	transition: 0.5s;
}

svg:hover .living{
	fill: #4b4b4b;
}

svg:hover .space{
	fill: #4b4b4b;
}

svg:hover .border1{
	fill: #1e676a;
}

svg:hover .border2{
	fill: #f89c62;
}
</style>
<polygon class="living" points="23,77.4 23,58.7 27.1,58.7 27.1,73.7 35.2,73.7 35.2,77.4 "/>
<rect x="42.9" class="living" y="58.7" width="4.2" height="18.8"/>
<polygon class="living" points="63.8,70.6 68.5,58.7 73.1,58.7 65.5,77.4 62,77.4 54.4,58.7 59,58.7 "/>
<rect x="80.4" class="living" y="58.7" width="4.2" height="18.8"/>
<polygon class="living" points="107.4,58.7 111.6,58.7 111.6,77.4 107.4,77.4 98.5,65.7 98.5,77.4 94.3,77.4 94.3,58.7 98.2,58.7 
	107.4,70.7 "/>
<path class="living" d="M133.4,67.9h4.2v6.7c-1.9,2.1-4.4,3.1-7.7,3.1c-2.8,0-5.1-0.9-6.9-2.7c-1.9-1.8-2.8-4.1-2.8-6.9
	s0.9-5.1,2.8-7c1.9-1.8,4.2-2.8,6.9-2.8c2.7,0,5,0.9,7,2.7l-2.2,3.1c-0.9-0.7-1.6-1.3-2.3-1.5s-1.5-0.4-2.3-0.4
	c-1.6,0-2.9,0.5-4,1.6s-1.6,2.5-1.6,4.3c0,1.8,0.5,3.2,1.6,4.3c1.1,1.1,2.3,1.6,3.8,1.6s2.6-0.3,3.6-0.8L133.4,67.9L133.4,67.9z"/>
<path class="space" d="M28.4,85.4c-0.4,0.3-0.6,0.8-0.6,1.3c0,0.6,0.3,1,0.8,1.3c0.5,0.3,1.6,0.7,3.4,1.2c1.8,0.4,3.2,1.1,4.2,2
	c1,0.9,1.5,2.2,1.5,3.8c0,1.7-0.6,3.1-1.9,4.1c-1.3,1.1-2.9,1.6-5,1.6c-3,0-5.6-1.1-8-3.3l2.5-3.1c2,1.8,3.9,2.7,5.6,2.7
	c0.8,0,1.4-0.2,1.8-0.5c0.5-0.3,0.7-0.8,0.7-1.3s-0.2-1-0.7-1.3c-0.5-0.3-1.4-0.7-2.8-1c-2.2-0.5-3.8-1.2-4.8-2
	c-1-0.8-1.5-2.1-1.5-3.9c0-1.8,0.6-3.2,1.9-4.1s2.9-1.4,4.8-1.4c1.3,0,2.5,0.2,3.8,0.7s2.3,1,3.3,1.8l-2.1,3.1
	c-1.6-1.2-3.3-1.8-5-1.8C29.4,84.9,28.8,85.1,28.4,85.4"/>
<path class="space" d="M57.8,90.7c0.5-0.6,0.8-1.4,0.8-2.5c0-1.1-0.3-1.8-1-2.3c-0.7-0.4-1.7-0.7-3-0.7h-2.4v6.3H55
	C56.4,91.6,57.3,91.3,57.8,90.7 M60.9,83.3c1.3,1.1,2,2.8,2,5.2c0,2.3-0.7,4-2,5.1c-1.3,1.1-3.4,1.6-6.2,1.6h-2.5v5.2H48V81.6h6.6
	C57.5,81.7,59.6,82.2,60.9,83.3"/>
<polygon class="space" points="79.4,87.2 73.7,100.4 69.3,100.4 77.4,81.7 81.4,81.7 89.5,100.4 85.1,100.4 "/>
<path class="space" d="M106.3,96.7c2.1,0,3.8-0.8,5.1-2.4L114,97c-2.1,2.4-4.7,3.6-7.5,3.6c-2.9,0-5.3-0.9-7.1-2.7
	c-1.9-1.8-2.8-4.1-2.8-6.9s0.9-5.1,2.8-6.9s4.2-2.8,7-2.8c3.1,0,5.7,1.2,7.7,3.5l-2.6,2.9c-1.3-1.7-3-2.5-4.9-2.5
	c-1.6,0-2.9,0.5-4.1,1.6s-1.7,2.4-1.7,4.2c0,1.8,0.5,3.2,1.6,4.2C103.5,96.2,104.8,96.7,106.3,96.7"/>
<polygon class="space" points="137.4,81.7 137.4,85.4 128,85.4 128,89.3 136.4,89.3 136.4,92.8 128,92.8 128,96.7 137.6,96.7 
	137.6,100.4 123.8,100.4 123.8,81.7 "/>
<polygon class="border1" points="0,0 0,41.8 5.6,41.8 5.6,5.6 41.8,5.6 41.8,0 "/>
<polygon class="border1" points="154.4,118.3 154.4,154.4 118.3,154.4 118.3,160 160,160 160,118.3 "/>
<polygon class="border2" points="118.3,0 118.3,5.6 154.4,5.6 154.4,41.8 160,41.8 160,0 "/>
<polygon class="border2" points="0,118.3 0,160 41.8,160 41.8,154.4 5.6,154.4 5.6,118.3 "/>
</svg>
