<?xml version="1.0" standalone="no"?>
<!DOCTYPE svg PUBLIC "-//W3C//DTD SVG 20010904//EN"
 "http://www.w3.org/TR/2001/REC-SVG-20010904/DTD/svg10.dtd">
<svg version="1.0" xmlns="http://www.w3.org/2000/svg"
 width="20.000000pt" height="20.000000pt" viewBox="0 0 256.000000 256.000000"
 preserveAspectRatio="xMidYMid meet">
<metadata>
Created by potrace 1.14, written by Peter Selinger 2001-2017
</metadata>
<g transform="translate(0.000000,256.000000) scale(0.100000,-0.100000)"
fill="#f89c62" stroke="none">
<path d="M654 2119 c-156 -60 -230 -255 -154 -407 56 -112 145 -166 270 -166
103 0 153 25 168 86 14 54 64 135 104 169 l31 26 -11 63 c-20 113 -107 211
-212 240 -55 15 -140 11 -196 -11z"/>
<path d="M1697 2126 c-98 -35 -170 -116 -193 -215 l-13 -56 56 -55 c59 -57
113 -154 113 -202 0 -22 7 -29 38 -39 20 -8 66 -13 102 -13 115 1 206 59 260
166 98 197 -47 429 -268 428 -31 -1 -74 -7 -95 -14z"/>
<path d="M1185 1810 c-198 -77 -252 -344 -98 -492 115 -112 301 -112 416 0 48
46 73 93 85 160 42 230 -185 416 -403 332z"/>
<path d="M540 1506 c-129 -36 -222 -127 -268 -261 -9 -25 -16 -110 -19 -232
l-6 -191 73 -22 c83 -25 236 -55 328 -64 l62 -7 0 68 c1 194 95 355 254 433
36 18 66 34 66 36 0 2 -16 24 -35 49 -31 41 -54 100 -70 178 l-5 27 -168 -1
c-100 0 -185 -6 -212 -13z"/>
<path d="M1665 1493 c-16 -78 -39 -137 -70 -178 -19 -25 -35 -47 -35 -49 0 -2
30 -18 66 -36 159 -78 253 -239 254 -434 l0 -69 79 7 c92 8 249 45 306 72 l40
19 0 180 c0 238 -19 304 -117 403 -86 88 -165 112 -370 112 l-148 0 -5 -27z"/>
<path d="M1070 1196 c-151 -42 -257 -162 -281 -317 -5 -35 -8 -133 -7 -218 l3
-154 45 -13 c320 -96 672 -98 923 -4 l57 21 0 157 c0 86 -4 184 -10 216 -25
154 -132 272 -285 312 -65 18 -382 17 -445 0z"/>
</g>
</svg>
