<?xml version="1.0" standalone="no"?>
<!DOCTYPE svg PUBLIC "-//W3C//DTD SVG 20010904//EN"
 "http://www.w3.org/TR/2001/REC-SVG-20010904/DTD/svg10.dtd">
<svg version="1.0" xmlns="http://www.w3.org/2000/svg"
 width="18.000000pt" height="18.000000pt" viewBox="0 0 256.000000 256.000000"
 preserveAspectRatio="xMidYMid meet">
<metadata>
Created by potrace 1.14, written by Peter Selinger 2001-2017
</metadata>
<g transform="translate(0.000000,256.000000) scale(0.100000,-0.100000)"
fill="#f89c62" stroke="none">
<path d="M1080 2221 c-168 -36 -321 -117 -449 -237 -103 -96 -161 -175 -216
-288 -72 -149 -90 -233 -90 -421 0 -188 18 -272 90 -420 54 -112 119 -199 221
-294 310 -290 784 -334 1161 -109 73 43 223 185 279 264 56 78 116 206 146
309 20 70 23 102 23 250 0 193 -14 261 -85 413 -54 115 -112 193 -217 292 -98
93 -160 133 -283 187 -166 71 -395 93 -580 54z m386 -226 c33 -8 102 -36 154
-62 80 -39 109 -60 186 -137 77 -77 98 -106 138 -186 62 -129 80 -200 80 -335
0 -135 -18 -206 -80 -335 -40 -80 -61 -109 -138 -186 -77 -77 -106 -98 -186
-138 -129 -62 -200 -80 -335 -80 -135 0 -207 18 -335 81 -80 39 -109 61 -186
137 -76 77 -98 106 -137 186 -63 127 -80 200 -80 335 0 135 17 208 80 335 83
169 252 313 438 374 116 37 278 42 401 11z"/>
<path d="M1170 1871 l0 -69 -69 -21 c-66 -20 -142 -68 -184 -115 -51 -58 -74
-157 -57 -241 22 -105 105 -177 243 -211 l67 -17 0 -113 c0 -63 -3 -114 -7
-114 -5 0 -22 8 -38 18 -28 17 -48 48 -74 115 -11 27 -11 27 -112 27 l-102 0
6 -45 c15 -136 132 -264 290 -314 l37 -13 0 -69 0 -69 100 0 100 0 0 69 0 69
39 7 c54 9 148 56 196 98 85 74 125 205 95 312 -27 96 -126 168 -267 196 l-63
12 0 103 c0 83 3 104 14 104 25 0 73 -48 90 -90 l16 -40 100 0 100 0 0 28 c0
101 -82 216 -192 271 -34 17 -69 31 -79 31 -43 0 -49 10 -49 81 l0 69 -100 0
-100 0 0 -69z m10 -366 c0 -98 -7 -107 -64 -80 -64 30 -64 114 1 149 57 31 63
25 63 -69z m267 -354 c23 -11 47 -29 53 -41 18 -33 4 -86 -28 -108 -22 -16
-84 -42 -98 -42 -2 0 -4 47 -4 105 0 119 1 120 77 86z"/>
</g>
</svg>
