<?xml version="1.0" standalone="no"?>
<!DOCTYPE svg PUBLIC "-//W3C//DTD SVG 20010904//EN"
 "http://www.w3.org/TR/2001/REC-SVG-20010904/DTD/svg10.dtd">
<svg version="1.0" xmlns="http://www.w3.org/2000/svg"
 width="20.000000pt" height="20.000000pt" viewBox="0 0 512.000000 512.000000"
 preserveAspectRatio="xMidYMid meet">
<metadata>
Created by potrace 1.14, written by Peter Selinger 2001-2017
</metadata>
<g transform="translate(0.000000,512.000000) scale(0.100000,-0.100000)"
fill="#FFFFFF" stroke="none">
<path d="M2525 4921 c-22 -4 -56 -15 -75 -26 -108 -57 -2369 -1380 -2388
-1398 -13 -12 -33 -39 -43 -59 -18 -36 -19 -81 -19 -1468 0 -1387 1 -1432 19
-1468 24 -47 56 -77 103 -97 33 -13 293 -15 2430 -15 1639 0 2405 3 2431 11
47 13 106 63 123 106 12 27 14 284 14 1463 0 1387 -1 1432 -19 1468 -10 20
-30 47 -43 59 -26 24 -2336 1374 -2413 1409 -53 25 -57 26 -120 15z m1115
-1060 l1075 -627 3 -1222 2 -1222 -2160 0 -2160 0 2 1222 3 1222 1075 627
c591 346 1077 628 1080 628 3 0 489 -282 1080 -628z"/>
<path d="M1630 3153 c-254 -23 -450 -238 -450 -492 0 -136 50 -259 144 -352
311 -312 846 -89 846 352 0 285 -256 517 -540 492z"/>
<path d="M3380 3150 c-343 -45 -533 -421 -369 -730 100 -189 338 -296 544
-245 232 57 385 250 385 486 0 298 -262 527 -560 489z"/>
<path d="M1221 2035 c-164 -77 -292 -199 -369 -352 -28 -53 -59 -170 -67 -250
l-7 -63 1782 0 1782 0 -7 63 c-8 80 -39 197 -66 250 -54 107 -150 216 -252
286 -54 37 -188 101 -210 101 -8 0 -43 -13 -78 -30 -96 -44 -172 -61 -284 -61
-111 1 -210 23 -298 67 -46 24 -54 25 -91 14 -160 -48 -344 -205 -422 -359
-30 -61 -64 -157 -64 -183 0 -10 -4 -18 -10 -18 -5 0 -10 8 -10 18 0 26 -34
122 -64 183 -78 154 -262 311 -422 359 -37 11 -45 10 -91 -14 -88 -44 -187
-66 -298 -67 -112 0 -188 17 -284 61 -35 17 -71 30 -80 30 -9 -1 -49 -16 -90
-35z"/>
</g>
</svg>
