<?xml version="1.0" standalone="no"?>
<!DOCTYPE svg PUBLIC "-//W3C//DTD SVG 20010904//EN"
 "http://www.w3.org/TR/2001/REC-SVG-20010904/DTD/svg10.dtd">
<svg version="1.0" xmlns="http://www.w3.org/2000/svg"
 width="15.000000pt" height="15.000000pt" viewBox="0 0 128.000000 128.000000"
 preserveAspectRatio="xMidYMid meet" id="settingsSVG">
<metadata>
Created by potrace 1.13, written by Peter Selinger 2001-2015
</metadata>
<style type="text/css">
#settingsSVG{
	-webkit-transition: -webkit-transform .8s ease-in-out;
	transition: transform .8s ease-in-out;
}

#settingsSVG:hover{
	-webkit-transform: rotate(360deg);
	transform: rotate(360deg);
}

#settingsSVG path{
	fill: #ceccc7;
}

#settingsSVG:hover path{
	fill: #f89c62;
}
</style>
<g transform="translate(0.000000,128.000000) scale(0.100000,-0.100000)"
fill="#000000" stroke="none">
<path d="M390 1217 c-71 -35 -77 -45 -79 -133 -1 -43 -6 -55 -34 -82 -29 -28
-40 -32 -87 -32 -88 0 -95 -4 -129 -82 -17 -39 -31 -75 -31 -80 0 -6 23 -36
50 -68 43 -50 50 -64 50 -100 0 -38 -6 -49 -50 -96 -27 -29 -50 -59 -50 -66 0
-19 52 -142 64 -150 5 -3 41 -9 80 -13 61 -6 76 -11 103 -38 30 -28 33 -37 34
-91 0 -34 4 -69 8 -79 6 -16 129 -77 154 -77 5 0 35 23 67 50 50 43 64 50 100
50 38 0 49 -6 96 -50 29 -27 61 -50 71 -49 10 0 47 14 83 32 l65 32 10 77 c8
64 15 82 39 107 26 27 36 31 85 31 89 0 95 4 130 82 17 39 31 75 31 80 0 6
-22 36 -50 68 -43 50 -50 64 -50 100 0 37 7 49 50 97 28 30 50 60 50 68 0 7
-14 44 -31 83 -29 65 -34 70 -67 76 -21 3 -55 6 -78 6 -32 0 -46 6 -72 33 -28
29 -32 40 -33 92 0 33 -4 68 -8 78 -6 17 -129 77 -156 77 -6 0 -36 -22 -67
-50 -49 -43 -62 -50 -99 -50 -37 0 -49 6 -95 50 -29 28 -61 50 -71 49 -10 0
-47 -14 -83 -32z m327 -322 c110 -33 187 -138 187 -255 -1 -77 -18 -123 -69
-178 -107 -119 -288 -117 -395 5 -96 110 -91 254 14 359 78 77 161 99 263 69z"/>
</g>
</svg>
